<svg id="Layer_1" data-name="Layer 1" xmlns="http://www.w3.org/2000/svg" viewBox="0 0 160 15.48"><defs><style>.cls-1{fill:#333e48;}</style></defs><title>hangar-logo</title><path class="cls-1" d="M18.08,6.3v-6h3.28V15.14H18.08V9H3.28v6.13H0V.34H3.28v6Z"/><path class="cls-1" d="M41.49.25l10.3,14.89H48l-2.37-3.49H32.73l-2.37,3.49H26.74L37,.25ZM34.51,9h9.37L39.18,2.12Z"/><path class="cls-1" d="M74.56,12.29V.34h3.26V15.14H73.23L59.69,3V15.14H56.43V.34h4.82Z"/><path class="cls-1" d="M105.72,6.94V8.63a5.81,5.81,0,0,1-1.59,4.49c-1.33,1.33-3.93,2.37-9.2,2.37-6,0-8.42-1.25-9.82-2.64a7,7,0,0,1-1.92-5.1,7.06,7.06,0,0,1,1.92-5.12C86.52,1.23,89.31,0,94.94,0c4.48,0,8,.78,9.75,1.69v3a21.47,21.47,0,0,0-9.75-2.05c-4.1,0-6.28.74-7.26,1.71A4.52,4.52,0,0,0,86.5,7.74a4.53,4.53,0,0,0,1.18,3.41c1,1,2.77,1.78,7.26,1.78,3.55,0,5.79-.63,6.64-1.48a2.46,2.46,0,0,0,.78-1.88H93.26V6.94Z"/><path class="cls-1" d="M123.58.25l10.3,14.89h-3.77l-2.37-3.49H114.82l-2.37,3.49h-3.62L119.14.25ZM116.6,9H126l-4.69-6.92Z"/><path class="cls-1" d="M150.48.34c4.15,0,5.46.59,6.51,1.65a4.54,4.54,0,0,1,1.12,3.26,4.43,4.43,0,0,1-1.21,3.28c-.8.8-2,1.48-4.86,1.67l8,4.89v.07h-4.95l-7.83-4.91h-5.86v4.91h-3.28V.34Zm-9.12,7.32h9.16c2.3,0,3.3-.32,3.81-.83a2,2,0,0,0,.53-1.5,2.09,2.09,0,0,0-.57-1.56c-.51-.51-1.38-.76-3.74-.76h-9.18Z"/></svg>